HIERARCHY
ROOT Hips
{
	OFFSET 0.00000 0.00000 0.00000
	CHANNELS 6 Xposition Yposition Zposition Zrotation Yrotation Xrotation 
	JOINT LHipJoint
	{
		OFFSET 0 0 0
		CHANNELS 3 Zrotation Yrotation Xrotation
		JOINT LeftUpLeg
		{
			OFFSET 1.38615 -1.80049 0.80104
			CHANNELS 3 Zrotation Yrotation Xrotation
			JOINT LeftLeg
			{
				OFFSET 2.50172 -6.87341 0.00000
				CHANNELS 3 Zrotation Yrotation Xrotation
				JOINT LeftFoot
				{
					OFFSET 2.67523 -7.35014 0.00000
					CHANNELS 3 Zrotation Yrotation Xrotation
					JOINT LeftToeBase
					{
						OFFSET 0.17446 -0.47932 2.13155
						CHANNELS 3 Zrotation Yrotation Xrotation
						End Site
						{
							OFFSET 0.00000 -0.00000 1.10023
						}
					}
				}
			}
		}
	}
	JOINT RHipJoint
	{
		OFFSET 0 0 0
		CHANNELS 3 Zrotation Yrotation Xrotation
		JOINT RightUpLeg
		{
			OFFSET -1.18047 -1.80049 0.80104
			CHANNELS 3 Zrotation Yrotation Xrotation
			JOINT RightLeg
			{
				OFFSET -2.59789 -7.13765 0.00000
				CHANNELS 3 Zrotation Yrotation Xrotation
				JOINT RightFoot
				{
					OFFSET -2.62125 -7.20183 0.00000
					CHANNELS 3 Zrotation Yrotation Xrotation
					JOINT RightToeBase
					{
						OFFSET -0.31287 -0.85960 2.07814
						CHANNELS 3 Zrotation Yrotation Xrotation
						End Site
						{
							OFFSET -0.00000 -0.00000 1.11766
						}
					}
				}
			}
		}
	}
	JOINT LowerBack
	{
		OFFSET 0 0 0
		CHANNELS 3 Zrotation Yrotation Xrotation
		JOINT Spine
		{
			OFFSET -0.01587 2.16157 -0.12309
			CHANNELS 3 Zrotation Yrotation Xrotation
			JOINT Spine1
			{
				OFFSET 0.04727 2.16674 -0.03569
				CHANNELS 3 Zrotation Yrotation Xrotation
				JOINT Neck
				{
					OFFSET 0 0 0
					CHANNELS 3 Zrotation Yrotation Xrotation
					JOINT Neck1
					{
						OFFSET -0.08586 1.60335 0.32783
						CHANNELS 3 Zrotation Yrotation Xrotation
						JOINT Head
						{
							OFFSET 0.07583 1.65857 -0.31618
							CHANNELS 3 Zrotation Yrotation Xrotation
							End Site
							{
								OFFSET 0.03386 1.69434 -0.14584
							}
						}
					}
				}
				JOINT LeftShoulder
				{
					OFFSET 0 0 0
					CHANNELS 3 Zrotation Yrotation Xrotation
					JOINT LeftArm
					{
						OFFSET 3.17393 1.01901 -0.52897
						CHANNELS 3 Zrotation Yrotation Xrotation
						JOINT LeftForeArm
						{
							OFFSET 5.25287 -0.00000 -0.00000
							CHANNELS 3 Zrotation Yrotation Xrotation
							JOINT LeftHand
							{
								OFFSET 3.51014 -0.00000 0.00000
								CHANNELS 3 Zrotation Yrotation Xrotation
								JOINT LeftFingerBase
								{
									OFFSET 0 0 0
									CHANNELS 3 Zrotation Yrotation Xrotation
									JOINT LeftHandIndex1
									{
										OFFSET 0.70618 -0.00000 -0.00000
										CHANNELS 3 Zrotation Yrotation Xrotation
										End Site
										{
											OFFSET 0.56934 -0.00000 -0.00000
										}
									}
								}
								JOINT LThumb
								{
									OFFSET 0 0 0
									CHANNELS 3 Zrotation Yrotation Xrotation
									End Site
									{
										OFFSET 0.57803 -0.00000 0.57803
									}
								}
							}
						}
					}
				}
				JOINT RightShoulder
				{
					OFFSET 0 0 0
					CHANNELS 3 Zrotation Yrotation Xrotation
					JOINT RightArm
					{
						OFFSET -2.99471 1.26495 -0.61125
						CHANNELS 3 Zrotation Yrotation Xrotation
						JOINT RightForeArm
						{
							OFFSET -5.28721 -0.00000 -0.00000
							CHANNELS 3 Zrotation Yrotation Xrotation
							JOINT RightHand
							{
								OFFSET -3.50544 -0.00000 0.00000
								CHANNELS 3 Zrotation Yrotation Xrotation
								JOINT RightFingerBase
								{
									OFFSET 0 0 0
									CHANNELS 3 Zrotation Yrotation Xrotation
									JOINT RightHandIndex1
									{
										OFFSET -0.88500 -0.00000 -0.00000
										CHANNELS 3 Zrotation Yrotation Xrotation
										End Site
										{
											OFFSET -0.71351 -0.00000 -0.00000
										}
									}
								}
								JOINT RThumb
								{
									OFFSET 0 0 0
									CHANNELS 3 Zrotation Yrotation Xrotation
									End Site
									{
										OFFSET -0.72440 -0.00000 0.72440
									}
								}
							}
						}
					}
				}
			}
		}
	}
}
MOTION
Frames: 5
Frame Time: .0083333
7.2771 18.1798 2.0662 -180.7430 -16.8482 -171.2580 0.0000 0.0000 0.0000 -22.3376 2.3231 -12.1625 0.8439 5.8596 16.3775 0.2596 -9.5642 -10.5399 0.0032 -0.3651 -1.0031 0.0000 0.0000 0.0000 14.0886 -4.1360 -17.1559 -2.8318 -10.4177 30.3402 -1.0197 -9.8234 -24.9976 -0.1494 2.4908 -6.8642 -4.0300 1.8074 -3.3982 -1.8692 2.6314 3.1424 0.5159 1.1491 5.0694 -17.2884 -10.9123 -11.3692 6.6942 -13.9642 21.2440 3.2192 -7.3502 10.3850 -0.0000 -0.0000 0.0000 -84.0737 3.0803 13.4748 13.1525 -21.5102 -2.5089 -0.0000 -0.0000 7.6573 2.2238 38.1011 1.3726 -7.1250 0.0000 -0.0000 -40.1416 63.6018 -19.6583 -0.0000 -0.0000 0.0000 36.4267 59.7254 -16.7453 -36.5508 45.8883 -15.9167 0.0000 0.0000 4.9369 -26.3145 22.3181 -10.6364 7.1250 -0.0000 -0.0000 1.6149 -5.3824 1.4569
7.2727 18.1828 2.0674 -180.5380 -16.7803 -171.2960 0.0000 0.0000 0.0000 -22.1418 2.3200 -12.2277 0.8533 5.8912 16.4691 0.2597 -9.5416 -10.5317 0.0025 -0.3235 -0.8889 0.0000 0.0000 0.0000 14.2857 -4.1569 -17.1309 -2.8009 -10.3656 30.1690 -1.0018 -9.8428 -24.8705 -0.1429 2.4364 -6.7134 -3.8122 1.8248 -3.4623 -1.8090 2.6480 3.1492 0.4607 1.1652 5.1186 -17.4761 -10.9218 -11.3742 7.0533 -14.0171 21.1951 3.3649 -7.3507 10.4183 0.0000 -0.0000 0.0000 -84.1885 3.0217 13.3888 13.0990 -21.4322 -2.4894 -0.0000 -0.0000 7.7566 1.5526 38.1595 0.9594 -7.1250 0.0000 -0.0000 -40.8730 63.4652 -19.9486 0.0000 -0.0000 0.0000 36.5037 59.7533 -16.6894 -36.5791 45.9073 -15.9370 0.0000 0.0000 5.0651 -25.8443 22.1914 -10.3675 7.1250 -0.0000 -0.0000 1.8932 -5.6087 1.7000
7.2685 18.1832 2.0666 -180.2770 -16.7198 -171.4710 0.0000 0.0000 0.0000 -21.8844 2.5446 -12.2578 0.8670 5.9371 16.6021 0.2601 -9.6793 -10.5937 0.0012 -0.2197 -0.6037 0.0000 0.0000 0.0000 14.5452 -4.2443 -16.9573 -2.7712 -10.3151 30.0033 -0.9782 -9.8701 -24.7031 -0.1710 2.6641 -7.3449 -3.4911 1.8850 -3.3987 -1.7908 2.7085 3.1694 0.3036 1.2076 5.1143 -17.5013 -10.9067 -11.3967 7.3644 -14.0682 21.2367 3.4692 -7.3466 10.4702 0.0000 0.0000 0.0000 -84.2261 2.8702 13.0669 12.9368 -21.1945 -2.4304 -0.0000 -0.0000 8.1224 1.3785 38.1921 0.8524 -7.1250 0.0000 -0.0000 -41.0854 63.4429 -20.0493 0.0000 0.0000 0.0000 36.5753 59.7063 -16.7328 -36.5571 45.8925 -15.9212 0.0000 0.0000 5.3596 -25.6536 22.0272 -10.2108 7.1250 -0.0000 -0.0000 1.9930 -5.8206 1.7817
7.2649 18.1855 2.0674 -180.0360 -16.7147 -171.5520 0.0000 0.0000 0.0000 -21.6460 2.6556 -12.3536 0.8786 5.9757 16.7138 0.2607 -9.7984 -10.6510 0.0005 -0.1439 -0.3955 0.0000 0.0000 0.0000 14.7796 -4.2519 -16.8735 -2.7457 -10.2716 29.8609 -0.9754 -9.8109 -24.6308 -0.1769 2.7089 -7.4694 -3.1174 1.9577 -3.4276 -1.8245 2.7892 3.2430 0.0691 1.2597 5.2240 -17.4433 -10.9967 -11.6043 7.6083 -14.2304 21.3205 3.5085 -7.3844 10.5759 0.0000 0.0000 0.0000 -84.1766 2.4547 12.9657 12.7420 -20.9080 -2.3604 -0.0000 -0.0000 8.3149 1.8094 38.5138 1.1270 -7.1250 0.0000 -0.0000 -41.1005 63.8000 -20.3962 0.0000 0.0000 0.0000 36.3015 59.8387 -17.3664 -36.4037 45.7888 -15.8112 0.0000 0.0000 5.3780 -26.6747 22.3767 -10.8275 7.1250 -0.0000 -0.0000 1.3976 -5.2491 1.2643
7.2637 18.1896 2.0696 -179.9610 -16.7118 -171.4970 0.0000 0.0000 0.0000 -21.5646 2.2410 -12.3189 0.8863 6.0011 16.7875 0.2821 -9.3641 -10.7469 0.0028 -0.3398 -0.9336 0.0000 0.0000 0.0000 14.8541 -4.2955 -16.9204 -2.7261 -10.2379 29.7505 -0.9853 -9.6894 -24.6103 -0.1479 2.4779 -6.8284 -2.9779 1.9470 -3.4874 -1.8112 2.7711 3.2750 0.0065 1.2549 5.2978 -17.4612 -11.0702 -12.0181 7.6496 -14.2773 21.5347 3.4949 -7.3908 10.7438 -0.0000 -0.0000 0.0000 -84.3094 2.2117 12.9334 12.7110 -20.8624 -2.3494 -0.0000 -0.0000 8.2528 2.3478 38.7916 1.4714 -7.1250 0.0000 -0.0000 -40.9580 64.1546 -20.6467 -0.0000 -0.0000 0.0000 35.9938 60.1098 -17.7707 -36.1797 45.6364 -15.6508 0.0000 0.0000 5.3560 -27.4571 22.7781 -11.3747 7.1250 -0.0000 -0.0000 0.9636 -4.6586 0.8823
